<svg width="216" height="67" viewBox="0 0 216 67" fill="none" xmlns="http://www.w3.org/2000/svg">
<g clip-path="url(#clip0_66_21)">
<path d="M62.3933 11H216L188.873 38.3226H166.061L147.477 56.6856V61.3428V66H34.4765C22.1542 63.4288 15.0701 59.9611 11.0607 53.2742C4.82519 42.8747 5.82827 28.1787 13.675 18.9572C17.9956 13.8795 24.2977 11.7138 34.4765 11H62.3933Z" fill="#88A8D6" fill-opacity="0.3"/>
<path d="M56.7807 6.49786H211.461L184.144 33.8098H161.173M56.7807 6.49786H28.6685C18.4185 7.21138 12.0725 9.37618 7.72167 14.4519C-0.179886 23.6697 -1.19003 38.3602 5.08905 48.7557C9.12651 55.4399 16.26 58.9063 28.6685 61.4765H142.459V52.1656L155.94 38.7756L178.557 61.4765H203.036L203.513 61.0331M56.7807 6.49786L62.3712 1H153.546M56.7807 6.49786L46.1407 16.9615M203.513 61.0331L208.002 56.8654L212.259 61.0331L208.002 65.5556L203.513 61.0331Z" stroke="url(#paint0_linear_66_21)" stroke-width="2"/>
<path d="M70.8628 39V35.3599H66.6587L64.7104 33.4116V31.2217L66.6587 29.2808H67.7573V32.7305H72.2251L74.1074 34.6787V37.0591L72.1665 39H70.8628ZM70.8628 32.0054V31.0312H68.27V29.2808H72.1592L73.8438 30.9727V32.0054H70.8628ZM66.3438 39L64.7104 37.0591V36.085H67.9478V37.2422H70.3501V39H66.3438ZM75.543 39V28.2554H78.7803V39H75.543ZM80.7212 39V33.1626H79.293V32.1812L80.2451 31.2217H82.0176L83.9658 33.1626V39H80.7212ZM85.4819 30.2549V28.1895H88.7266V30.2549H85.4819ZM85.4819 39V31.2217H88.7266V39H85.4819ZM94.0146 39V37.1836H95.4429V33.1626H94.0146V32.1812L94.9668 31.2217H96.7393L98.6875 33.1626V37.0591L96.7393 39H94.0146ZM90.2646 41.5928V31.2217H93.502V41.5928H90.2646ZM103.873 39V37.1836H105.301V33.1626H103.873V32.1812L104.825 31.2217H106.598L108.546 33.1626V37.0591L106.598 39H103.873ZM100.123 41.5928V31.2217H103.36V41.5928H100.123ZM111.886 39L109.945 37.0591V33.1626L111.886 31.2217H113.182V39H111.886ZM113.695 35.8799V34.5249H115.401V33.1626H113.695V31.2217H116.441L118.382 33.1626V35.8799H113.695ZM113.695 39V37.1836H118.045V38.0259L117.079 39H113.695ZM119.708 39V31.2217H122.945V39H119.708ZM124.842 35.0522V33.1626H123.465V32.313L124.549 31.2217H126.512L128.087 33.0381V35.0522H124.842Z" fill="white"/>
</g>
<defs>
<linearGradient id="paint0_linear_66_21" x1="-9.44682" y1="32.5003" x2="975.447" y2="20.2509" gradientUnits="userSpaceOnUse">
<stop stop-color="#65CFB4"/>
<stop offset="1" stop-color="#5CA7CC"/>
</linearGradient>
<clipPath id="clip0_66_21">
<rect width="216" height="67" fill="white"/>
</clipPath>
</defs>
</svg>
