<svg width="220" height="68" viewBox="0 0 220 68" fill="none" xmlns="http://www.w3.org/2000/svg">
<g clip-path="url(#clip0_64_61)">
<path d="M164.872 66.0624H12L38.9975 38.6802H61.7001L80.1951 20.2771V15.6098V10.9424H192.655C204.918 13.5192 211.969 16.9945 215.959 23.6959C222.164 34.1181 221.166 48.8463 213.357 58.0878C209.057 63.1766 202.785 65.3471 192.655 66.0624H164.872Z" fill="#88A8D6" fill-opacity="0.3"/>
<path d="M157.479 61.0577H2.79822L30.1151 33.7457H53.0862M157.479 61.0577H185.591C195.841 60.3442 202.187 58.1794 206.538 53.1037C214.439 43.8858 215.449 29.1953 209.17 18.7999C205.133 12.1156 197.999 8.64925 185.591 6.07906H71.8V15.39L58.3189 28.7799L35.7027 6.07906H11.2239L10.7463 6.52243M157.479 61.0577L151.888 66.5556H60.7136M157.479 61.0577L168.119 50.594M10.7463 6.52243L6.25714 10.6902L2 6.52243L6.25714 2L10.7463 6.52243Z" stroke="url(#paint0_linear_64_61)" stroke-width="2"/>
<path d="M91.3535 44V39.1465H85.748L83.1504 36.5488V33.6289L85.748 31.041H87.2129V35.6406H93.1699L95.6797 38.2383V41.4121L93.0918 44H91.3535ZM91.3535 34.6738V33.375H87.8965V31.041H93.082L95.3281 33.2969V34.6738H91.3535ZM85.3281 44L83.1504 41.4121V40.1133H87.4668V41.6562H90.6699V44H85.3281ZM97.5449 32.3398V29.5859H101.871V32.3398H97.5449ZM97.5449 44V33.6289H101.871V44H97.5449ZM106.744 47.6328L105.445 46.3242V45.3672H110.709V36.2168H108.795V33.6289H112.438L115.025 36.2168V45.0254L112.438 47.6328H106.744ZM106.383 44L103.795 41.4121V36.2168L106.383 33.6289H108.111V41.5781H110.025V42.7207L108.736 44H106.383ZM123.883 44V36.2168H122.027V35.084L123.473 33.6289H125.875L128.209 35.9629V44H123.883ZM116.969 44V33.6289H121.324V44H116.969ZM142.008 44V41.4121H143.609V31.041H147.926V41.4121L145.338 44H142.008ZM138.004 44L135.406 41.4121V31.041H139.732V41.4121H141.324V44H138.004ZM154.938 44V41.5781H156.842V36.2168H154.938V34.9082L156.207 33.6289H158.57L161.168 36.2168V41.4121L158.57 44H154.938ZM149.938 47.457V33.6289H154.254V47.457H149.938ZM160.895 45.9141L166.871 30.1523H169.312L163.326 45.9141H160.895ZM169.908 44V41.2363H171.207V33.7949H169.908V31.041H176.822V33.7949H175.523V41.2363H176.822V44H169.908ZM185.484 44V36.2168H183.629V35.084L185.074 33.6289H187.477L189.811 35.9629V44H185.484ZM178.57 44V33.6289H182.926V44H178.57Z" fill="#FFFCFC"/>
</g>
<defs>
<linearGradient id="paint0_linear_64_61" x1="-771.188" y1="43.5002" x2="213.706" y2="31.2508" gradientUnits="userSpaceOnUse">
<stop stop-color="#65CFB4"/>
<stop offset="1" stop-color="#5CA7CC"/>
</linearGradient>
<clipPath id="clip0_64_61">
<rect width="220" height="68" fill="white"/>
</clipPath>
</defs>
</svg>
