<svg width="1259" height="138" viewBox="0 0 1259 138" fill="none" xmlns="http://www.w3.org/2000/svg">
<g filter="url(#filter0_d_62_60)">
<mask id="path-1-outside-1_62_60" maskUnits="userSpaceOnUse" x="3" y="-1" width="1253" height="132" fill="black">
<rect fill="white" x="3" y="-1" width="1253" height="132"/>
<path d="M30.0625 130L4.18359 104.121V26.2891L30.0625 0.410156H47.3477V104.121H84.3594V130H30.0625ZM86.3125 39.2773V26.2891H54.1836V0.410156H106.82L129.477 26.2891V39.2773H86.3125ZM91.1953 130V83.8086H70.1992V58.125H129.477V130H91.1953ZM241 130L235.531 115.84H193.148L202.133 90.1562H225.57L190.902 0.410156H232.992L284.652 130H241ZM139.926 130L186.215 6.26953L205.355 57.7344L181.625 130H139.926ZM272.445 28.6328V0.410156H384.945V28.6328H272.445ZM306.234 130V35.3711H351.156V130H306.234ZM400.668 130V102.363H413.656V27.9492H400.668V0.410156H469.809V27.9492H456.82V102.363H469.809V130H400.668ZM568.637 130V81.4648H512.582L486.605 55.4883V26.2891L512.582 0.410156H527.23V46.4062H586.801L611.898 72.3828V104.121L586.02 130H568.637ZM568.637 36.7383V23.75H534.066V0.410156H585.922L608.383 22.9688V36.7383H568.637ZM508.383 130L486.605 104.121V91.1328H529.77V106.562H561.801V130H508.383ZM713.559 130V77.3633H681.527V51.3867H713.266V0.410156H756.82V130H713.559ZM631.527 130V0.410156H674.691V130H631.527ZM869.516 130L864.047 115.84H821.664L830.648 90.1562H854.086L819.418 0.410156H861.508L913.168 130H869.516ZM768.441 130L814.73 6.26953L833.871 57.7344L810.141 130H768.441ZM974.496 111.641V48.6523L1004.77 0.410156H1049.69L974.496 111.641ZM924.691 130V0.410156H967.855V130H924.691ZM1005.06 130L990.414 99.8242L1016 61.4453L1051.74 130H1005.06ZM1057.21 28.6328V0.410156H1169.71V28.6328H1057.21ZM1091 130V35.3711H1135.92V130H1091ZM1185.43 130V102.363H1198.42V27.9492H1185.43V0.410156H1254.57V27.9492H1241.59V102.363H1254.57V130H1185.43Z"/>
</mask>
<path d="M30.0625 130L4.18359 104.121V26.2891L30.0625 0.410156H47.3477V104.121H84.3594V130H30.0625ZM86.3125 39.2773V26.2891H54.1836V0.410156H106.82L129.477 26.2891V39.2773H86.3125ZM91.1953 130V83.8086H70.1992V58.125H129.477V130H91.1953ZM241 130L235.531 115.84H193.148L202.133 90.1562H225.57L190.902 0.410156H232.992L284.652 130H241ZM139.926 130L186.215 6.26953L205.355 57.7344L181.625 130H139.926ZM272.445 28.6328V0.410156H384.945V28.6328H272.445ZM306.234 130V35.3711H351.156V130H306.234ZM400.668 130V102.363H413.656V27.9492H400.668V0.410156H469.809V27.9492H456.82V102.363H469.809V130H400.668ZM568.637 130V81.4648H512.582L486.605 55.4883V26.2891L512.582 0.410156H527.23V46.4062H586.801L611.898 72.3828V104.121L586.02 130H568.637ZM568.637 36.7383V23.75H534.066V0.410156H585.922L608.383 22.9688V36.7383H568.637ZM508.383 130L486.605 104.121V91.1328H529.77V106.562H561.801V130H508.383ZM713.559 130V77.3633H681.527V51.3867H713.266V0.410156H756.82V130H713.559ZM631.527 130V0.410156H674.691V130H631.527ZM869.516 130L864.047 115.84H821.664L830.648 90.1562H854.086L819.418 0.410156H861.508L913.168 130H869.516ZM768.441 130L814.73 6.26953L833.871 57.7344L810.141 130H768.441ZM974.496 111.641V48.6523L1004.77 0.410156H1049.69L974.496 111.641ZM924.691 130V0.410156H967.855V130H924.691ZM1005.06 130L990.414 99.8242L1016 61.4453L1051.74 130H1005.06ZM1057.21 28.6328V0.410156H1169.71V28.6328H1057.21ZM1091 130V35.3711H1135.92V130H1091ZM1185.43 130V102.363H1198.42V27.9492H1185.43V0.410156H1254.57V27.9492H1241.59V102.363H1254.57V130H1185.43Z" fill="url(#paint0_linear_62_60)"/>
<path d="M30.0625 130L29.3554 130.707L29.6483 131H30.0625V130ZM4.18359 104.121H3.18359V104.535L3.47649 104.828L4.18359 104.121ZM4.18359 26.2891L3.47649 25.582L3.18359 25.8748V26.2891H4.18359ZM30.0625 0.410156V-0.589844H29.6483L29.3554 -0.296951L30.0625 0.410156ZM47.3477 0.410156H48.3477V-0.589844H47.3477V0.410156ZM47.3477 104.121H46.3477V105.121H47.3477V104.121ZM84.3594 104.121H85.3594V103.121H84.3594V104.121ZM84.3594 130V131H85.3594V130H84.3594ZM86.3125 39.2773H85.3125V40.2773H86.3125V39.2773ZM86.3125 26.2891H87.3125V25.2891H86.3125V26.2891ZM54.1836 26.2891H53.1836V27.2891H54.1836V26.2891ZM54.1836 0.410156V-0.589844H53.1836V0.410156H54.1836ZM106.82 0.410156L107.573 -0.248549L107.274 -0.589844H106.82V0.410156ZM129.477 26.2891H130.477V25.9132L130.229 25.6304L129.477 26.2891ZM129.477 39.2773V40.2773H130.477V39.2773H129.477ZM91.1953 130H90.1953V131H91.1953V130ZM91.1953 83.8086H92.1953V82.8086H91.1953V83.8086ZM70.1992 83.8086H69.1992V84.8086H70.1992V83.8086ZM70.1992 58.125V57.125H69.1992V58.125H70.1992ZM129.477 58.125H130.477V57.125H129.477V58.125ZM129.477 130V131H130.477V130H129.477ZM30.7696 129.293L4.8907 103.414L3.47649 104.828L29.3554 130.707L30.7696 129.293ZM5.18359 104.121V26.2891H3.18359V104.121H5.18359ZM4.8907 26.9962L30.7696 1.11726L29.3554 -0.296951L3.47649 25.582L4.8907 26.9962ZM30.0625 1.41016H47.3477V-0.589844H30.0625V1.41016ZM46.3477 0.410156V104.121H48.3477V0.410156H46.3477ZM47.3477 105.121H84.3594V103.121H47.3477V105.121ZM83.3594 104.121V130H85.3594V104.121H83.3594ZM84.3594 129H30.0625V131H84.3594V129ZM87.3125 39.2773V26.2891H85.3125V39.2773H87.3125ZM86.3125 25.2891H54.1836V27.2891H86.3125V25.2891ZM55.1836 26.2891V0.410156H53.1836V26.2891H55.1836ZM54.1836 1.41016H106.82V-0.589844H54.1836V1.41016ZM106.068 1.06886L128.724 26.9478L130.229 25.6304L107.573 -0.248549L106.068 1.06886ZM128.477 26.2891V39.2773H130.477V26.2891H128.477ZM129.477 38.2773H86.3125V40.2773H129.477V38.2773ZM92.1953 130V83.8086H90.1953V130H92.1953ZM91.1953 82.8086H70.1992V84.8086H91.1953V82.8086ZM71.1992 83.8086V58.125H69.1992V83.8086H71.1992ZM70.1992 59.125H129.477V57.125H70.1992V59.125ZM128.477 58.125V130H130.477V58.125H128.477ZM129.477 129H91.1953V131H129.477V129ZM241 130L240.067 130.36L240.314 131H241V130ZM235.531 115.84L236.464 115.48L236.217 114.84H235.531V115.84ZM193.148 115.84L192.205 115.51L191.739 116.84H193.148V115.84ZM202.133 90.1562V89.1562H201.423L201.189 89.8261L202.133 90.1562ZM225.57 90.1562V91.1562H227.029L226.503 89.7959L225.57 90.1562ZM190.902 0.410156V-0.589844H189.444L189.97 0.770495L190.902 0.410156ZM232.992 0.410156L233.921 0.039852L233.67 -0.589844H232.992V0.410156ZM284.652 130V131H286.128L285.581 129.63L284.652 130ZM139.926 130L138.989 129.65L138.484 131H139.926V130ZM186.215 6.26953L187.152 5.92094L186.218 3.40823L185.278 5.91914L186.215 6.26953ZM205.355 57.7344L206.306 58.0464L206.415 57.7138L206.293 57.3858L205.355 57.7344ZM181.625 130V131H182.349L182.575 130.312L181.625 130ZM241.933 129.64L236.464 115.48L234.598 116.2L240.067 130.36L241.933 129.64ZM235.531 114.84H193.148V116.84H235.531V114.84ZM194.092 116.17L203.077 90.4864L201.189 89.8261L192.205 115.51L194.092 116.17ZM202.133 91.1562H225.57V89.1562H202.133V91.1562ZM226.503 89.7959L191.835 0.0498172L189.97 0.770495L224.637 90.5166L226.503 89.7959ZM190.902 1.41016H232.992V-0.589844H190.902V1.41016ZM232.063 0.78046L283.723 130.37L285.581 129.63L233.921 0.039852L232.063 0.78046ZM284.652 129H241V131H284.652V129ZM140.862 130.35L187.151 6.61993L185.278 5.91914L138.989 129.65L140.862 130.35ZM185.278 6.61812L204.418 58.083L206.293 57.3858L187.152 5.92094L185.278 6.61812ZM204.405 57.4224L180.675 129.688L182.575 130.312L206.306 58.0464L204.405 57.4224ZM181.625 129H139.926V131H181.625V129ZM272.445 28.6328H271.445V29.6328H272.445V28.6328ZM272.445 0.410156V-0.589844H271.445V0.410156H272.445ZM384.945 0.410156H385.945V-0.589844H384.945V0.410156ZM384.945 28.6328V29.6328H385.945V28.6328H384.945ZM306.234 130H305.234V131H306.234V130ZM306.234 35.3711V34.3711H305.234V35.3711H306.234ZM351.156 35.3711H352.156V34.3711H351.156V35.3711ZM351.156 130V131H352.156V130H351.156ZM273.445 28.6328V0.410156H271.445V28.6328H273.445ZM272.445 1.41016H384.945V-0.589844H272.445V1.41016ZM383.945 0.410156V28.6328H385.945V0.410156H383.945ZM384.945 27.6328H272.445V29.6328H384.945V27.6328ZM307.234 130V35.3711H305.234V130H307.234ZM306.234 36.3711H351.156V34.3711H306.234V36.3711ZM350.156 35.3711V130H352.156V35.3711H350.156ZM351.156 129H306.234V131H351.156V129ZM400.668 130H399.668V131H400.668V130ZM400.668 102.363V101.363H399.668V102.363H400.668ZM413.656 102.363V103.363H414.656V102.363H413.656ZM413.656 27.9492H414.656V26.9492H413.656V27.9492ZM400.668 27.9492H399.668V28.9492H400.668V27.9492ZM400.668 0.410156V-0.589844H399.668V0.410156H400.668ZM469.809 0.410156H470.809V-0.589844H469.809V0.410156ZM469.809 27.9492V28.9492H470.809V27.9492H469.809ZM456.82 27.9492V26.9492H455.82V27.9492H456.82ZM456.82 102.363H455.82V103.363H456.82V102.363ZM469.809 102.363H470.809V101.363H469.809V102.363ZM469.809 130V131H470.809V130H469.809ZM401.668 130V102.363H399.668V130H401.668ZM400.668 103.363H413.656V101.363H400.668V103.363ZM414.656 102.363V27.9492H412.656V102.363H414.656ZM413.656 26.9492H400.668V28.9492H413.656V26.9492ZM401.668 27.9492V0.410156H399.668V27.9492H401.668ZM400.668 1.41016H469.809V-0.589844H400.668V1.41016ZM468.809 0.410156V27.9492H470.809V0.410156H468.809ZM469.809 26.9492H456.82V28.9492H469.809V26.9492ZM455.82 27.9492V102.363H457.82V27.9492H455.82ZM456.82 103.363H469.809V101.363H456.82V103.363ZM468.809 102.363V130H470.809V102.363H468.809ZM469.809 129H400.668V131H469.809V129ZM568.637 130H567.637V131H568.637V130ZM568.637 81.4648H569.637V80.4648H568.637V81.4648ZM512.582 81.4648L511.875 82.172L512.168 82.4648H512.582V81.4648ZM486.605 55.4883H485.605V55.9025L485.898 56.1954L486.605 55.4883ZM486.605 26.2891L485.9 25.5806L485.605 25.8737V26.2891H486.605ZM512.582 0.410156V-0.589844H512.169L511.876 -0.298281L512.582 0.410156ZM527.23 0.410156H528.23V-0.589844H527.23V0.410156ZM527.23 46.4062H526.23V47.4062H527.23V46.4062ZM586.801 46.4062L587.52 45.7114L587.225 45.4062H586.801V46.4062ZM611.898 72.3828H612.898V71.9786L612.618 71.688L611.898 72.3828ZM611.898 104.121L612.606 104.828L612.898 104.535V104.121H611.898ZM586.02 130V131H586.434L586.727 130.707L586.02 130ZM568.637 36.7383H567.637V37.7383H568.637V36.7383ZM568.637 23.75H569.637V22.75H568.637V23.75ZM534.066 23.75H533.066V24.75H534.066V23.75ZM534.066 0.410156V-0.589844H533.066V0.410156H534.066ZM585.922 0.410156L586.631 -0.295415L586.337 -0.589844H585.922V0.410156ZM608.383 22.9688H609.383V22.5558L609.091 22.2632L608.383 22.9688ZM608.383 36.7383V37.7383H609.383V36.7383H608.383ZM508.383 130L507.618 130.644L507.917 131H508.383V130ZM486.605 104.121H485.605V104.486L485.84 104.765L486.605 104.121ZM486.605 91.1328V90.1328H485.605V91.1328H486.605ZM529.77 91.1328H530.77V90.1328H529.77V91.1328ZM529.77 106.562H528.77V107.562H529.77V106.562ZM561.801 106.562H562.801V105.562H561.801V106.562ZM561.801 130V131H562.801V130H561.801ZM569.637 130V81.4648H567.637V130H569.637ZM568.637 80.4648H512.582V82.4648H568.637V80.4648ZM513.289 80.7577L487.313 54.7812L485.898 56.1954L511.875 82.172L513.289 80.7577ZM487.605 55.4883V26.2891H485.605V55.4883H487.605ZM487.311 26.9975L513.288 1.11859L511.876 -0.298281L485.9 25.5806L487.311 26.9975ZM512.582 1.41016H527.23V-0.589844H512.582V1.41016ZM526.23 0.410156V46.4062H528.23V0.410156H526.23ZM527.23 47.4062H586.801V45.4062H527.23V47.4062ZM586.082 47.1011L611.179 73.0776L612.618 71.688L587.52 45.7114L586.082 47.1011ZM610.898 72.3828V104.121H612.898V72.3828H610.898ZM611.191 103.414L585.312 129.293L586.727 130.707L612.606 104.828L611.191 103.414ZM586.02 129H568.637V131H586.02V129ZM569.637 36.7383V23.75H567.637V36.7383H569.637ZM568.637 22.75H534.066V24.75H568.637V22.75ZM535.066 23.75V0.410156H533.066V23.75H535.066ZM534.066 1.41016H585.922V-0.589844H534.066V1.41016ZM585.213 1.11573L607.674 23.6743L609.091 22.2632L586.631 -0.295415L585.213 1.11573ZM607.383 22.9688V36.7383H609.383V22.9688H607.383ZM608.383 35.7383H568.637V37.7383H608.383V35.7383ZM509.148 129.356L487.371 103.477L485.84 104.765L507.618 130.644L509.148 129.356ZM487.605 104.121V91.1328H485.605V104.121H487.605ZM486.605 92.1328H529.77V90.1328H486.605V92.1328ZM528.77 91.1328V106.562H530.77V91.1328H528.77ZM529.77 107.562H561.801V105.562H529.77V107.562ZM560.801 106.562V130H562.801V106.562H560.801ZM561.801 129H508.383V131H561.801V129ZM713.559 130H712.559V131H713.559V130ZM713.559 77.3633H714.559V76.3633H713.559V77.3633ZM681.527 77.3633H680.527V78.3633H681.527V77.3633ZM681.527 51.3867V50.3867H680.527V51.3867H681.527ZM713.266 51.3867V52.3867H714.266V51.3867H713.266ZM713.266 0.410156V-0.589844H712.266V0.410156H713.266ZM756.82 0.410156H757.82V-0.589844H756.82V0.410156ZM756.82 130V131H757.82V130H756.82ZM631.527 130H630.527V131H631.527V130ZM631.527 0.410156V-0.589844H630.527V0.410156H631.527ZM674.691 0.410156H675.691V-0.589844H674.691V0.410156ZM674.691 130V131H675.691V130H674.691ZM714.559 130V77.3633H712.559V130H714.559ZM713.559 76.3633H681.527V78.3633H713.559V76.3633ZM682.527 77.3633V51.3867H680.527V77.3633H682.527ZM681.527 52.3867H713.266V50.3867H681.527V52.3867ZM714.266 51.3867V0.410156H712.266V51.3867H714.266ZM713.266 1.41016H756.82V-0.589844H713.266V1.41016ZM755.82 0.410156V130H757.82V0.410156H755.82ZM756.82 129H713.559V131H756.82V129ZM632.527 130V0.410156H630.527V130H632.527ZM631.527 1.41016H674.691V-0.589844H631.527V1.41016ZM673.691 0.410156V130H675.691V0.410156H673.691ZM674.691 129H631.527V131H674.691V129ZM869.516 130L868.583 130.36L868.83 131H869.516V130ZM864.047 115.84L864.98 115.48L864.733 114.84H864.047V115.84ZM821.664 115.84L820.72 115.51L820.255 116.84H821.664V115.84ZM830.648 90.1562V89.1562H829.939L829.705 89.8261L830.648 90.1562ZM854.086 90.1562V91.1562H855.544L855.019 89.7959L854.086 90.1562ZM819.418 0.410156V-0.589844H817.96L818.485 0.770495L819.418 0.410156ZM861.508 0.410156L862.437 0.039852L862.186 -0.589844H861.508V0.410156ZM913.168 130V131H914.643L914.097 129.63L913.168 130ZM768.441 130L767.505 129.65L767 131H768.441V130ZM814.73 6.26953L815.668 5.92094L814.733 3.40823L813.794 5.91914L814.73 6.26953ZM833.871 57.7344L834.821 58.0464L834.93 57.7138L834.808 57.3858L833.871 57.7344ZM810.141 130V131H810.865L811.091 130.312L810.141 130ZM870.448 129.64L864.98 115.48L863.114 116.2L868.583 130.36L870.448 129.64ZM864.047 114.84H821.664V116.84H864.047V114.84ZM822.608 116.17L831.592 90.4864L829.705 89.8261L820.72 115.51L822.608 116.17ZM830.648 91.1562H854.086V89.1562H830.648V91.1562ZM855.019 89.7959L820.351 0.0498172L818.485 0.770495L853.153 90.5166L855.019 89.7959ZM819.418 1.41016H861.508V-0.589844H819.418V1.41016ZM860.579 0.78046L912.239 130.37L914.097 129.63L862.437 0.039852L860.579 0.78046ZM913.168 129H869.516V131H913.168V129ZM769.378 130.35L815.667 6.61993L813.794 5.91914L767.505 129.65L769.378 130.35ZM813.793 6.61812L832.934 58.083L834.808 57.3858L815.668 5.92094L813.793 6.61812ZM832.921 57.4224L809.191 129.688L811.091 130.312L834.821 58.0464L832.921 57.4224ZM810.141 129H768.441V131H810.141V129ZM974.496 111.641H973.496V114.905L975.325 112.201L974.496 111.641ZM974.496 48.6523L973.649 48.1208L973.496 48.3646V48.6523H974.496ZM1004.77 0.410156V-0.589844H1004.22L1003.92 -0.121383L1004.77 0.410156ZM1049.69 0.410156L1050.52 0.970216L1051.57 -0.589844H1049.69V0.410156ZM924.691 130H923.691V131H924.691V130ZM924.691 0.410156V-0.589844H923.691V0.410156H924.691ZM967.855 0.410156H968.855V-0.589844H967.855V0.410156ZM967.855 130V131H968.855V130H967.855ZM1005.06 130L1004.16 130.437L1004.44 131H1005.06V130ZM990.414 99.8242L989.582 99.2695L989.264 99.7459L989.514 100.261L990.414 99.8242ZM1016 61.4453L1016.89 60.983L1016.11 59.4844L1015.17 60.8906L1016 61.4453ZM1051.74 130V131H1053.39L1052.63 129.538L1051.74 130ZM975.496 111.641V48.6523H973.496V111.641H975.496ZM975.343 49.1839L1005.62 0.941696L1003.92 -0.121383L973.649 48.1208L975.343 49.1839ZM1004.77 1.41016H1049.69V-0.589844H1004.77V1.41016ZM1048.86 -0.149904L973.668 111.081L975.325 112.201L1050.52 0.970216L1048.86 -0.149904ZM925.691 130V0.410156H923.691V130H925.691ZM924.691 1.41016H967.855V-0.589844H924.691V1.41016ZM966.855 0.410156V130H968.855V0.410156H966.855ZM967.855 129H924.691V131H967.855V129ZM1005.96 129.563L991.314 99.3875L989.514 100.261L1004.16 130.437L1005.96 129.563ZM991.246 100.379L1016.83 62L1015.17 60.8906L989.582 99.2695L991.246 100.379ZM1015.11 61.9076L1050.86 130.462L1052.63 129.538L1016.89 60.983L1015.11 61.9076ZM1051.74 129H1005.06V131H1051.74V129ZM1057.21 28.6328H1056.21V29.6328H1057.21V28.6328ZM1057.21 0.410156V-0.589844H1056.21V0.410156H1057.21ZM1169.71 0.410156H1170.71V-0.589844H1169.71V0.410156ZM1169.71 28.6328V29.6328H1170.71V28.6328H1169.71ZM1091 130H1090V131H1091V130ZM1091 35.3711V34.3711H1090V35.3711H1091ZM1135.92 35.3711H1136.92V34.3711H1135.92V35.3711ZM1135.92 130V131H1136.92V130H1135.92ZM1058.21 28.6328V0.410156H1056.21V28.6328H1058.21ZM1057.21 1.41016H1169.71V-0.589844H1057.21V1.41016ZM1168.71 0.410156V28.6328H1170.71V0.410156H1168.71ZM1169.71 27.6328H1057.21V29.6328H1169.71V27.6328ZM1092 130V35.3711H1090V130H1092ZM1091 36.3711H1135.92V34.3711H1091V36.3711ZM1134.92 35.3711V130H1136.92V35.3711H1134.92ZM1135.92 129H1091V131H1135.92V129ZM1185.43 130H1184.43V131H1185.43V130ZM1185.43 102.363V101.363H1184.43V102.363H1185.43ZM1198.42 102.363V103.363H1199.42V102.363H1198.42ZM1198.42 27.9492H1199.42V26.9492H1198.42V27.9492ZM1185.43 27.9492H1184.43V28.9492H1185.43V27.9492ZM1185.43 0.410156V-0.589844H1184.43V0.410156H1185.43ZM1254.57 0.410156H1255.57V-0.589844H1254.57V0.410156ZM1254.57 27.9492V28.9492H1255.57V27.9492H1254.57ZM1241.59 27.9492V26.9492H1240.59V27.9492H1241.59ZM1241.59 102.363H1240.59V103.363H1241.59V102.363ZM1254.57 102.363H1255.57V101.363H1254.57V102.363ZM1254.57 130V131H1255.57V130H1254.57ZM1186.43 130V102.363H1184.43V130H1186.43ZM1185.43 103.363H1198.42V101.363H1185.43V103.363ZM1199.42 102.363V27.9492H1197.42V102.363H1199.42ZM1198.42 26.9492H1185.43V28.9492H1198.42V26.9492ZM1186.43 27.9492V0.410156H1184.43V27.9492H1186.43ZM1185.43 1.41016H1254.57V-0.589844H1185.43V1.41016ZM1253.57 0.410156V27.9492H1255.57V0.410156H1253.57ZM1254.57 26.9492H1241.59V28.9492H1254.57V26.9492ZM1240.59 27.9492V102.363H1242.59V27.9492H1240.59ZM1241.59 103.363H1254.57V101.363H1241.59V103.363ZM1253.57 102.363V130H1255.57V102.363H1253.57ZM1254.57 129H1185.43V131H1254.57V129Z" fill="black" mask="url(#path-1-outside-1_62_60)"/>
</g>
<defs>
<filter id="filter0_d_62_60" x="0.183594" y="0.410156" width="1258.39" height="137.59" filterUnits="userSpaceOnUse" color-interpolation-filters="sRGB">
<feFlood flood-opacity="0" result="BackgroundImageFix"/>
<feColorMatrix in="SourceAlpha" type="matrix" values="0 0 0 0 0 0 0 0 0 0 0 0 0 0 0 0 0 0 127 0" result="hardAlpha"/>
<feOffset dy="4"/>
<feGaussianBlur stdDeviation="2"/>
<feComposite in2="hardAlpha" operator="out"/>
<feColorMatrix type="matrix" values="0 0 0 0 0 0 0 0 0 0 0 0 0 0 0 0 0 0 0.25 0"/>
<feBlend mode="normal" in2="BackgroundImageFix" result="effect1_dropShadow_62_60"/>
<feBlend mode="normal" in="SourceGraphic" in2="effect1_dropShadow_62_60" result="shape"/>
</filter>
<linearGradient id="paint0_linear_62_60" x1="-55" y1="78" x2="1312" y2="78" gradientUnits="userSpaceOnUse">
<stop stop-color="#65CFB3"/>
<stop offset="0.313631" stop-color="#62C2BB"/>
<stop offset="1" stop-color="#5BA6CC"/>
</linearGradient>
</defs>
</svg>
