<svg width="176" height="200" viewBox="0 0 176 200" fill="none" xmlns="http://www.w3.org/2000/svg">
<g clip-path="url(#clip0_57_13)">
<g filter="url(#filter0_d_57_13)">
<path d="M90.0307 4L19.955 45.1875L19.9279 127.704L27.6164 123.185L27.6318 49.7343L89.4347 13.4093L90.0307 4Z" fill="url(#paint0_linear_57_13)"/>
<path d="M173.486 50.2349L103.41 9.04736L33.2002 50.2816L40.8886 54.8005L103.38 18.0889L165.182 54.414L173.486 50.2349Z" fill="url(#paint1_linear_57_13)"/>
<path d="M176 146.279V63.9036L105.817 22.6216V31.6595L168.293 68.3982V141.048L176 146.279Z" fill="url(#paint2_linear_57_13)"/>
<path d="M95.1034 196L165.179 154.813L165.206 72.2964L157.517 76.8153L157.502 150.266L95.6995 186.591L95.1034 196Z" fill="url(#paint3_linear_57_13)"/>
<path d="M11.4941 150.611L81.5699 191.798L151.779 150.564L144.09 146.045L81.5995 182.757L19.7966 146.432L11.4941 150.611Z" fill="url(#paint4_linear_57_13)"/>
<path d="M9 53.8887V136.264L79.1823 177.545V168.508L16.7063 131.769V59.1188L9 53.8887Z" fill="url(#paint5_linear_57_13)"/>
<path d="M55.9549 61.2767L92.3959 65.3117L96.1157 73.2888L59.6739 69.2798L52.2538 80.5017L102.054 86.023L105.773 93.9999L39.1066 86.646L55.9549 61.2767Z" fill="url(#paint6_linear_57_13)"/>
<path d="M115.946 108.564L120.129 117.027L136.466 91.0368L70.7734 82.6665L74.5987 90.8699L123.063 97.2868L115.946 108.564Z" fill="url(#paint7_linear_57_13)"/>
</g>
</g>
<defs>
<filter id="filter0_d_57_13" x="5" y="4" width="175" height="200" filterUnits="userSpaceOnUse" color-interpolation-filters="sRGB">
<feFlood flood-opacity="0" result="BackgroundImageFix"/>
<feColorMatrix in="SourceAlpha" type="matrix" values="0 0 0 0 0 0 0 0 0 0 0 0 0 0 0 0 0 0 127 0" result="hardAlpha"/>
<feOffset dy="4"/>
<feGaussianBlur stdDeviation="2"/>
<feComposite in2="hardAlpha" operator="out"/>
<feColorMatrix type="matrix" values="0 0 0 0 0 0 0 0 0 0 0 0 0 0 0 0 0 0 0.25 0"/>
<feBlend mode="normal" in2="BackgroundImageFix" result="effect1_dropShadow_57_13"/>
<feBlend mode="normal" in="SourceGraphic" in2="effect1_dropShadow_57_13" result="shape"/>
</filter>
<linearGradient id="paint0_linear_57_13" x1="92.5001" y1="4" x2="92.5001" y2="196" gradientUnits="userSpaceOnUse">
<stop stop-color="#65CEB4"/>
<stop offset="1" stop-color="#5CA8CC"/>
</linearGradient>
<linearGradient id="paint1_linear_57_13" x1="92.5001" y1="3.99986" x2="92.5001" y2="196" gradientUnits="userSpaceOnUse">
<stop stop-color="#65CEB4"/>
<stop offset="1" stop-color="#5CA8CC"/>
</linearGradient>
<linearGradient id="paint2_linear_57_13" x1="92.5" y1="3.99988" x2="92.5" y2="196" gradientUnits="userSpaceOnUse">
<stop stop-color="#65CEB4"/>
<stop offset="1" stop-color="#5CA8CC"/>
</linearGradient>
<linearGradient id="paint3_linear_57_13" x1="92.5001" y1="3.99999" x2="92.5001" y2="196" gradientUnits="userSpaceOnUse">
<stop stop-color="#65CEB4"/>
<stop offset="1" stop-color="#5CA8CC"/>
</linearGradient>
<linearGradient id="paint4_linear_57_13" x1="92.5001" y1="3.99991" x2="92.5001" y2="196" gradientUnits="userSpaceOnUse">
<stop stop-color="#65CEB4"/>
<stop offset="1" stop-color="#5CA8CC"/>
</linearGradient>
<linearGradient id="paint5_linear_57_13" x1="92.5" y1="4.00007" x2="92.5" y2="196" gradientUnits="userSpaceOnUse">
<stop stop-color="#65CEB4"/>
<stop offset="1" stop-color="#5CA8CC"/>
</linearGradient>
<linearGradient id="paint6_linear_57_13" x1="35.1593" y1="30.2929" x2="94.4866" y2="157.521" gradientUnits="userSpaceOnUse">
<stop stop-color="#65CEB4"/>
<stop offset="1" stop-color="#5CA8CC"/>
</linearGradient>
<linearGradient id="paint7_linear_57_13" x1="72.8899" y1="16.9331" x2="133.724" y2="147.392" gradientUnits="userSpaceOnUse">
<stop stop-color="#65CEB4"/>
<stop offset="1" stop-color="#5CA8CC"/>
</linearGradient>
<clipPath id="clip0_57_13">
<rect width="176" height="200" fill="white"/>
</clipPath>
</defs>
</svg>
