<svg width="220" height="68" viewBox="0 0 220 68" fill="none" xmlns="http://www.w3.org/2000/svg">
<g clip-path="url(#clip0_66_38)">
<path d="M164.872 66.0624H12L38.9975 38.6802H61.7001L80.1951 20.2771V15.6098V10.9424H192.655C204.918 13.5192 211.969 16.9945 215.959 23.6959C222.164 34.1181 221.166 48.8463 213.357 58.0878C209.057 63.1766 202.785 65.3471 192.655 66.0624H164.872Z" fill="#88A8D6" fill-opacity="0.3"/>
<path d="M92.603 41V39.0225H93.8408V33.251H92.603V31.2808H95.1152L97.0781 33.2217V39.0591L95.1152 41H92.603ZM89.6001 41L87.6299 39.0591V33.2217L89.6001 31.2808H92.0903V33.251H90.8745V39.0225H92.0903V41H89.6001ZM102.308 41V39.1836H103.736V35.1626H102.308V34.1812L103.26 33.2217H105.032L106.98 35.1626V39.0591L105.032 41H102.308ZM98.5576 43.5928V33.2217H101.795V43.5928H98.5576ZM110.32 41L108.379 39.0591V35.1626L110.32 33.2217H111.617V41H110.32ZM112.129 37.8799V36.5249H113.836V35.1626H112.129V33.2217H114.876L116.817 35.1626V37.8799H112.129ZM112.129 41V39.1836H116.48V40.0259L115.513 41H112.129ZM118.143 41V33.2217H121.38V41H118.143ZM123.277 37.0522V35.1626H121.9V34.313L122.984 33.2217H124.947L126.521 35.0381V37.0522H123.277ZM132.19 41V35.1626H127.583V34.1958L128.558 33.2217H133.414L135.354 35.1626V41H132.19ZM128.235 41L126.932 39.7183V37.77L128.235 36.4736H131.678V37.8213H130.008V39.1836H131.678V40.0405L130.711 41H128.235ZM138.929 41L136.98 39.0591V35.1626H136.336V33.2217H136.98V32.3794L140.218 31.2808V39.0591H142.356V41H138.929ZM140.73 35.1626V33.2217H142.474V35.1626H140.73ZM145.301 41L143.36 39.0591V35.1626L145.301 33.2217H147.476V35.1626H146.634V39.1836H147.476V41H145.301ZM147.989 41V39.1836H148.794V35.1626H147.989V33.2217H150.157L152.098 35.1626V39.0591L150.157 41H147.989ZM153.533 41V33.2217H156.771V41H153.533ZM158.667 37.0522V35.1626H157.291V34.313L158.375 33.2217H160.337L161.912 35.0381V37.0522H158.667Z" fill="white"/>
<path d="M157.479 61.0577H2.79822L30.1151 33.7457H53.0862M157.479 61.0577H185.591C195.841 60.3442 202.187 58.1794 206.538 53.1037C214.439 43.8858 215.449 29.1953 209.17 18.7999C205.133 12.1156 197.999 8.64925 185.591 6.07906H71.8V15.39L58.3189 28.7799L35.7027 6.07906H11.2239L10.7463 6.52243M157.479 61.0577L151.888 66.5556H60.7136M157.479 61.0577L168.119 50.594M10.7463 6.52243L6.25714 10.6902L2 6.52243L6.25714 2L10.7463 6.52243Z" stroke="url(#paint0_linear_66_38)" stroke-width="2"/>
</g>
<defs>
<linearGradient id="paint0_linear_66_38" x1="-771.188" y1="43.5002" x2="213.706" y2="31.2508" gradientUnits="userSpaceOnUse">
<stop stop-color="#65CFB4"/>
<stop offset="1" stop-color="#5CA7CC"/>
</linearGradient>
<clipPath id="clip0_66_38">
<rect width="220" height="68" fill="white"/>
</clipPath>
</defs>
</svg>
